<svg id="svg" version="1.1" viewBox="0 0 212.08665906499434 300" width="212.08665906499434" height="300" xmlns="http://www.w3.org/2000/svg"><svg xmlns="http://www.w3.org/2000/svg"><defs><clipPath id="clip-1"><rect x="0" y="0" transform="scale(0.14647,0.14648)" width="1448" height="2048" fill="none"/></clipPath></defs><g clip-path="url(#clip-1)" fill="none" fill-rule="nonzero" stroke="none" stroke-width="1" stroke-linecap="butt" stroke-linejoin="miter" stroke-miterlimit="10" stroke-dasharray="" stroke-dashoffset="0" font-family="none" font-weight="none" font-size="none" text-anchor="none" style="mix-blend-mode: normal"><path d="M0,0h212.08666v299.74365c-0.16404,0.104 -0.32077,0.17725 -0.51411,0.21533c-1.0619,0.21094 -2.52658,0.04102 -3.61924,0.04102l-8.69731,0.00146l-32.97596,0.00146l-133.40104,-0.00146h-21.66651c-3.39777,-0.00146 -7.20727,0.24316 -10.56562,-0.02783c-0.24608,-0.02051 -0.44102,-0.09961 -0.64687,-0.22998z" fill="#ffffff"/><path d="M44.94699,132.72026c-2.12306,-5.34067 0.35343,-11.40454 5.60799,-13.73159c5.25442,-2.32705 11.40845,-0.0854 13.93576,5.07627c2.52717,5.16167 0.52406,11.39795 -4.53599,14.12212c-5.0602,2.72417 -11.36831,0.96226 -14.28465,-3.98994c-0.27858,-0.473 -0.5204,-0.96665 -0.72312,-1.47686z" fill="#015c87"/><path d="M48.60285,121.7395l0.07441,0.05596c-0.31535,0.57847 -0.59144,1.04414 -0.4999,1.73291c0.08129,0.61274 0.39488,1.23413 0.91323,1.59053c0.71272,0.49014 1.22931,0.04893 1.96854,0.0186c0.3628,-0.01479 0.66922,0.20098 0.89653,0.46846c0.249,0.29312 0.28884,0.58198 0.2528,0.94863c-0.62674,0.6542 -1.85547,-0.38467 -2.85951,-0.0687c-0.52465,0.16289 -0.95629,0.5395 -1.18874,1.0374c-0.21926,0.46538 -0.21062,1.00034 -0.02856,1.47686c0.20388,0.53394 0.65135,0.94834 1.18625,1.14082c0.50385,0.18149 1.18068,0.17051 1.66139,-0.07998c0.83106,-0.43301 0.89199,-1.31558 1.17849,-2.0978c0.14969,-0.4084 0.17064,-0.50083 0.56405,-0.67734c0.80236,0.24888 1.26168,1.13335 1.71954,1.78491l-0.72487,1.22886l-1.77813,3.11147c-0.24988,-0.30073 -0.49843,-0.58345 -0.84263,-0.77944c-0.51879,-0.29546 -1.15564,-0.2584 -1.715,-0.10283c-0.4561,0.12671 -0.8813,0.38833 -1.09456,0.82485c-0.34552,0.70708 0.02314,1.48696 0.26101,2.17002c-0.28869,-0.14766 -0.50458,-0.32285 -0.73425,-0.54829c-1.53572,-1.50703 -2.21563,-4.03945 -2.23409,-6.1355c-0.02446,-2.76812 1.12224,-5.14819 3.02399,-7.10039z" fill="#ffffff"/><path d="M56.19257,131.57388c1.6488,1.50571 1.23239,2.32544 1.93412,4.08926c0.28283,0.71104 0.99276,0.97061 1.64001,1.25054c-2.21431,1.12646 -4.14492,1.55845 -6.6157,1.18813c-1.54495,-0.30542 -2.81615,-0.99888 -4.11182,-1.86152c0.14383,0.02461 0.2881,0.04658 0.43267,0.06606c0.57709,0.07764 1.09764,0.13491 1.62961,-0.15601c0.55512,-0.30381 0.72795,-1.0894 1.19255,-1.52139c1.19211,-1.10859 2.60392,-2.06953 3.89856,-3.05508z" fill="#ffffff"/><path d="M54.28437,119.29043c2.00135,-0.18018 3.76351,0.49907 5.51791,1.36172c-2.3911,0.70518 -1.14846,1.16411 -2.37704,2.46138c-0.65764,0.69434 -1.70197,1.21143 -2.5137,1.71724l-2.57199,-1.57148c-0.09359,-0.41968 -0.23127,-0.88374 -0.48994,-1.23223c-0.52978,-0.71396 -1.49105,-0.89238 -2.32065,-0.99404l-0.10795,-0.01245c1.36992,-1.02656 3.19302,-1.53501 4.86335,-1.73013z" fill="#ffffff"/><path d="M61.86984,122.55688c1.58772,1.47334 2.17535,3.96914 2.33383,6.03662l-2.24654,0.00718c-0.46108,-0.83203 -0.87193,-1.17231 -1.74957,-1.52476c-1.55198,0.22837 -1.95213,-0.20142 -3.18877,-0.99199l1.05208,-1.83486c0.44819,0.40327 0.90562,0.71426 1.52518,0.75967c0.58089,0.04248 1.12678,-0.10298 1.55066,-0.51211c0.61795,-0.59634 0.68137,-1.13232 0.72312,-1.93975z" fill="#ffffff"/><path d="M61.98467,129.33589l2.23658,0.00146c-0.33351,2.2752 -0.98368,3.93003 -2.36781,5.77354c-0.0621,-0.37441 -0.1163,-0.77153 -0.24621,-1.12925c-0.25925,-0.71411 -0.75373,-0.99873 -1.39965,-1.3021c-0.57108,-0.00161 -1.17483,0.34087 -1.71207,0.26426c-0.63099,-0.09009 -1.31163,-1.36011 -1.66315,-1.85083c0.28049,-0.22544 0.64637,-0.59238 0.98193,-0.71338c0.77965,-0.2814 1.84741,0.98862 2.87503,0.53672c0.65969,-0.29004 1.02177,-0.95376 1.29537,-1.58042z" fill="#ffffff"/><path d="M56.63754,126.75586l1.58977,0.92051c-0.74523,1.05586 -0.28474,1.70581 -1.47201,2.58384l-0.2881,0.1166c-0.50034,-0.27935 -0.82755,-0.90293 -1.15212,-1.36582z" fill="#ffffff"/><path d="M49.85472,121.98809c0.69895,-0.19453 1.42602,0.20142 1.64191,0.89414c0.21604,0.69272 -0.15716,1.43174 -0.84278,1.66904c-0.46284,0.16025 -0.97607,0.05581 -1.33946,-0.27246c-0.36339,-0.32827 -0.51938,-0.82837 -0.40689,-1.30518c0.11234,-0.47666 0.47529,-0.8543 0.94721,-0.98555z" fill="#3ca6da"/><path d="M59.16881,121.68589c0.67859,-0.30527 1.47596,0.00029 1.77681,0.68086c0.30099,0.68071 -0.00967,1.47612 -0.69206,1.77275c-0.67639,0.29385 -1.46308,-0.01333 -1.76129,-0.68774c-0.29821,-0.67456 0.00395,-1.46323 0.67654,-1.76587z" fill="#3ca6da"/><path d="M59.29448,127.85874c0.53139,-0.01758 1.11507,0.0104 1.52928,0.39097c0.27858,0.25605 0.38726,0.55488 0.35709,0.92974c-0.03691,0.45718 -0.47251,0.78179 -0.7924,1.06025c-0.09359,0.00498 -0.18719,0.00806 -0.28093,0.00923c-0.51967,0.00454 -1.07493,-0.10415 -1.42953,-0.52383c-0.23816,-0.28198 -0.29499,-0.58931 -0.21414,-0.94526c0.0955,-0.42144 0.50488,-0.68437 0.83062,-0.92109z" fill="#3ca6da"/><path d="M59.38514,133.5564c0.64432,-0.23394 1.35689,0.09521 1.59636,0.73755c0.23948,0.64233 -0.08349,1.35776 -0.72356,1.60283c-0.64812,0.24814 -1.37417,-0.07983 -1.61657,-0.73008c-0.24255,-0.6501 0.09154,-1.37344 0.74377,-1.6103z" fill="#3ca6da"/><path d="M49.96926,133.12427c0.67595,-0.08218 1.29244,0.3936 1.38428,1.06846c0.09184,0.67471 -0.37511,1.298 -1.04842,1.39937c-0.44409,0.06694 -0.8898,-0.1106 -1.16648,-0.46436c-0.27668,-0.35391 -0.34127,-0.82925 -0.16932,-1.24409c0.1721,-0.41499 0.55409,-0.70503 0.99994,-0.75937z" fill="#3ca6da"/><path d="M49.45984,127.2c0.40572,-0.20859 0.89317,-0.17842 1.27003,0.07881c0.37686,0.25708 0.58265,0.6999 0.53651,1.15386c-0.04628,0.45396 -0.33717,0.84609 -0.75812,1.02202c-0.61634,0.25752 -1.32613,-0.01772 -1.60779,-0.62344c-0.28166,-0.60571 -0.03471,-1.32583 0.55936,-1.63125z" fill="#3ca6da"/><path d="M54.93206,125.69839l1.07259,0.68804c-0.37994,0.66108 -0.77409,1.31382 -1.182,1.95806l-1.29581,-1.73247z" fill="#ffffff"/><path d="M54.85252,129.85195c0.38726,0.22544 0.69455,0.75278 0.9664,1.10874l-2.21153,1.73569c-0.13695,0.09053 -0.26262,0.12583 -0.41758,0.17651c0.28063,-1.03271 1.1095,-2.10205 1.66271,-3.02095z" fill="#ffffff"/><path d="M52.05146,124.06143c0.62278,0.23906 1.59153,0.69199 1.95506,1.25435l-0.1762,0.34497c-0.12523,0.06475 -0.29894,0.17622 -0.43589,0.20142c-0.29528,0.05405 -0.5639,-0.19995 -0.75768,-0.39463c-0.37789,-0.37983 -0.58661,-0.88784 -0.58529,-1.4061z" fill="#ffffff"/><path d="M88.33336,129.11118c-0.5951,-4.41548 1.73814,-8.70791 5.7672,-10.60913c4.02906,-1.90107 8.82532,-0.97295 11.85444,2.29409c2.97478,3.20845 3.5775,7.95483 1.49896,11.80503c-2.07854,3.8502 -6.37695,5.9502 -10.69119,5.2229c-4.31424,-0.72729 -7.68697,-4.12046 -8.3887,-8.43926c-0.01479,-0.09111 -0.02827,-0.18223 -0.04072,-0.27363z" fill="#015c87"/><path d="M88.33336,129.11118c-0.5951,-4.41548 1.73814,-8.70791 5.7672,-10.60913c4.02906,-1.90107 8.82532,-0.97295 11.85444,2.29409c2.97478,3.20845 3.5775,7.95483 1.49896,11.80503c-2.07854,3.8502 -6.37695,5.9502 -10.69119,5.2229c-4.31424,-0.72729 -7.68697,-4.12046 -8.3887,-8.43926c0.76193,0.72773 1.34649,3.19497 2.19059,4.38091c1.42441,2.00127 3.67314,3.49424 6.10438,3.88989c2.47635,0.39448 5.00718,-0.22617 7.0201,-1.72148c2.21592,-1.61338 3.68017,-4.18198 4.09175,-6.87773c0.46372,-3.03706 -0.45962,-5.596 -2.22383,-8.00435c-2.13302,-2.02002 -4.4818,-3.20537 -7.48147,-3.11455c-2.63175,0.06328 -5.12304,1.20088 -6.89443,3.14854c-0.78288,0.85752 -1.86733,2.33628 -2.17901,3.47549c-0.30685,1.12192 0.06489,3.83643 -0.66878,4.54966z" fill="#3ca6da"/><path d="M93.84454,120.48135l0.14442,-0.00439c0.07177,-0.00176 0.14369,-0.00132 0.21531,-0.00527c2.65767,-0.14575 1.41035,2.08521 2.68799,3.11309c1.0575,0.28594 1.09002,-1.1439 1.98992,-1.51377c0.96347,0.27466 1.06175,1.0396 1.63488,1.72998l0.25925,-0.07251c0.49111,-0.55327 0.71696,-1.35059 0.97826,-2.03481l-0.00132,-0.00205c0.18118,-0.13813 0.36778,-0.28154 0.56976,-0.38818c0.539,-0.28447 1.08636,-0.22969 1.64177,-0.03149c0.42212,0.15059 0.83194,0.38481 0.99833,0.82632c0.60609,1.60752 -1.52459,3.10312 -2.05085,4.4335l-0.06855,0.17842c0.3732,0.11499 0.81817,0.21665 1.16296,0.39595c0.38346,0.19937 0.45449,0.39932 0.60667,0.77212c-0.11132,0.63164 -0.76808,1.05205 -1.23532,1.454l-0.01728,0.27319c0.59247,0.63149 1.46146,0.56558 2.13346,1.04458c0.32633,0.23276 0.47998,0.61963 0.53066,1.00532c0.07148,0.54595 -0.07338,1.14917 -0.44922,1.56255c-0.37232,0.40957 -0.91909,0.60791 -1.46644,0.58784c-0.82784,-0.03032 -1.29552,-0.56206 -1.82222,-1.1209c-0.16566,-0.11704 -0.34156,-0.2584 -0.54442,-0.29663c-0.28737,-0.05405 -0.34801,0.02695 -0.58236,0.17446c-0.18279,0.45161 -0.09828,0.83833 -0.06181,1.30928c0.05214,0.67632 0.18016,1.77407 -0.34259,2.29556c-0.34435,0.34336 -1.0392,0.65347 -1.53572,0.5959c-1.20456,-0.1396 -1.27984,-2.44556 -1.85283,-3.26836c-1.03114,-0.46685 -1.7815,1.16162 -3.00803,1.01909c-0.56273,-0.86294 0.09125,-1.54028 -0.07162,-2.43882c-0.94238,-0.80537 -2.29282,0.53848 -3.25307,-0.11309c-0.33146,-0.225 -0.46475,-0.6731 -0.51352,-1.05103c-0.31945,-2.47383 1.4641,-1.36289 2.35375,-2.57607c0.22483,-1.18418 -1.01972,-1.10684 -1.41884,-2.00918c-0.10326,-0.2332 -0.08979,-0.44458 0.04174,-0.66299c0.55409,-0.91978 1.40258,-0.27715 2.14884,-0.55547c0.21297,-0.07939 0.18279,-0.14927 0.26643,-0.34658c-0.10648,-0.57832 -0.50429,-0.9627 -0.84029,-1.42646c-0.31769,-0.43887 -0.54838,-0.92095 -0.43164,-1.47568c0.14002,-0.66636 0.68254,-1.01895 1.20353,-1.37739z" fill="#3ca6da"/><path d="M94.17629,121.63857c1.55857,0.16523 0.64607,1.86855 1.6652,2.70688c0.40792,0.3356 0.98749,0.70225 1.53763,0.60864c0.71008,-0.1207 1.12268,-0.96841 1.489,-1.51157l0.22703,0.10063c0.0082,0.3624 0.01831,0.62739 0.16961,0.96006c0.34362,0.34321 0.7051,0.58813 1.20734,0.61406c1.46,0.07559 1.57879,-1.85918 2.40809,-2.64331c0.34039,-0.0772 0.35138,-0.09258 0.66233,0.05903c1.0679,1.64194 -1.72233,2.3833 -1.57351,4.58423c0.03076,0.45615 0.1409,0.74473 0.48027,1.04736l1.00375,-0.06504c-0.20154,0.58389 -1.13001,0.81431 -1.3604,1.57163c0.26628,1.27837 2.22061,1.57148 2.88514,2.80547l-0.21048,0.33149c-0.94765,-0.04585 -1.73448,-0.61655 -2.49099,-1.12749c-0.46753,-0.31582 -0.80939,-0.34878 -1.35396,-0.2354c-0.03911,0.00806 -0.07777,0.01758 -0.11674,0.02637c-0.7029,0.54551 -0.88379,1.13584 -1.17058,1.94839c0.22219,0.56558 0.58983,1.21509 0.46167,1.82754c-0.23391,0.2606 -0.21912,0.29575 -0.56244,0.32637c-0.72663,-0.63911 -0.61707,-1.25039 -0.89624,-2.05708c-0.24621,-0.71177 -1.211,-1.01543 -1.83833,-1.29844c-0.79371,0.58257 -1.49354,1.23018 -2.20553,1.90649c0.20608,-0.37529 0.42403,-0.75439 0.59393,-1.14771c0.16566,-0.3832 0.26452,-0.83291 0.07001,-1.22622c-0.2903,-0.58682 -1.03495,-0.81753 -1.60017,-1.04824c-0.7694,0.30029 -1.45575,0.53965 -2.29516,0.35332l-0.01699,-0.21885c0.67903,-0.82441 1.83657,-1.21772 2.55837,-2.02983c0.31989,-0.35991 0.34654,-0.57026 0.29718,-1.02832c-0.55805,-0.95742 -1.42324,-1.31675 -2.38261,-1.77773c0.643,0.13066 1.44828,0.37178 2.09948,0.29502c0.46885,-0.05522 0.74465,-0.16187 1.043,-0.52822c0.27229,-1.18667 -0.7798,-2.06631 -1.10774,-3.10591c-0.12889,-0.40869 0.12787,-0.69272 0.32282,-1.02363z" fill="#5b45b5"/><path d="M97.55225,126.67222c1.00434,-0.29546 2.05832,0.27803 2.3558,1.28188c0.29748,1.00386 -0.2736,2.05913 -1.27677,2.35884c-1.00609,0.30059 -2.06521,-0.27275 -2.36357,-1.27969c-0.2985,-1.00679 0.27712,-2.0647 1.28453,-2.36104z" fill="#c79ed7"/><path d="M97.68539,127.81919c0.24211,-0.1478 0.54516,-0.1541 0.79327,-0.01641c0.24826,0.1377 0.40323,0.39814 0.40586,0.68203c0.00278,0.28374 -0.1472,0.54712 -0.39268,0.68965c-0.37379,0.2168 -0.8523,0.09243 -1.07318,-0.27891c-0.22102,-0.37119 -0.10209,-0.85122 0.26672,-1.07637z" fill="#5b45b5"/><path d="M83.09711,111.82559c1.82573,-0.02402 3.65176,-0.0186 5.47734,0.01597c0.02724,0.89312 0.07909,1.78389 -0.04848,2.67158c-0.72473,0.75923 -1.81753,0.16685 -2.74087,0.47563c-0.45757,0.15308 -0.76706,0.47563 -0.96435,0.91069c-0.394,0.86865 -0.55731,2.66235 -0.23772,3.52544c0.78815,0.74531 2.95339,0.42744 4.0109,0.404l-0.00161,3.36094c-1.19328,-0.02227 -2.75801,-0.22661 -3.8782,0.19556c-0.46929,0.65449 -0.21223,11.64023 -0.21487,13.575l-4.27967,0.0019c-0.00249,-4.55332 0.24123,-9.23613 -0.06782,-13.76748c-1.36538,0.00469 -6.08226,-0.33501 -6.9476,0.20581c-0.60067,0.85488 -0.0996,5.06865 -0.09154,6.32651c-0.13797,0.97837 -0.30597,1.80615 0.23054,2.70674c0.81847,1.37373 2.2688,0.84565 3.53282,1.14229c0.53739,0.75469 0.00366,2.56685 0.0268,3.50317c0.00088,0.0394 0.00293,0.07881 0.00454,0.11821l-0.14559,0.11279c-1.08636,-0.39551 -2.38143,-0.14766 -3.53224,-0.29268c-7.64215,-0.9627 -3.11378,-11.43589 -4.8569,-13.71328c-0.64065,-0.22017 -1.46498,-0.12393 -2.14196,-0.11367l-0.00073,-3.36401c0.66409,0.02314 1.65715,0.19395 2.16993,-0.32168c0.68591,-0.68965 0.27272,-3.31699 0.27419,-4.34136c1.47069,-0.01055 2.94153,0.00952 4.41134,0.0605c-0.07104,1.15063 -0.48247,3.41104 0.13753,4.37871c0.27961,0.20112 0.47646,0.29824 0.82198,0.3334c0.67346,0.0687 1.46,-0.0687 2.14313,-0.09067c1.31793,-0.04248 2.64347,-0.01992 3.96227,-0.01758c0.24446,-2.09414 -0.35065,-4.40669 0.72619,-6.34614c0.50048,-0.90117 1.25612,-1.38062 2.22061,-1.6563z" fill="#5b45b5"/><path d="M135.22722,118.99556c0.55673,-0.11953 1.1987,-0.08628 1.7626,-0.04014c2.07429,0.16992 4.23602,0.71118 5.61136,2.38696c0.69177,0.84272 1.15329,1.88906 1.36787,2.95444c0.47134,2.34082 0.19231,10.11606 -0.06943,12.72861c-0.7133,0.21709 -2.00091,0.23232 -2.74541,0.10093c-1.3273,-0.23408 -0.51381,-1.21421 -0.99687,-1.87046c-0.65633,0.02183 -2.75669,1.63828 -3.97164,1.9519c-2.13903,0.55225 -4.04224,0.16714 -5.9248,-0.90879c-0.60418,-0.34541 -0.94135,-0.8877 -1.33858,-1.44331c-0.35109,-0.40796 -0.6222,-1.16455 -0.63904,-1.6979c-0.04951,-1.57603 -0.25691,-2.92764 0.86973,-4.223c2.52571,-2.90361 6.83892,-1.57617 10.08012,-2.01929c0.32296,-0.04409 0.5746,-0.08906 0.75666,-0.3791c0.23596,-0.37603 0.20257,-1.08999 0.10604,-1.50762c-0.20125,-0.88462 -0.76955,-1.6415 -1.56267,-2.08154c-1.59592,-0.87686 -4.30384,-0.56748 -5.90562,0.16245c-0.80616,0.36738 -1.5369,0.95229 -2.38568,1.20688c-0.21165,-0.33267 -0.25354,-0.71206 -0.31315,-1.09614c-0.08568,-0.55298 -0.31374,-1.61748 0.04628,-2.08594c1.06322,-1.38325 3.61895,-1.93081 5.25222,-2.13896z" fill="#5b45b5"/><path d="M135.566,129.24565c1.3314,-0.32798 3.19932,-0.09961 4.59428,-0.08716c0.02153,0.56646 0.0769,1.1915 -0.04277,1.74873c-0.23113,1.07651 -0.90957,2.18657 -1.8559,2.76768c-0.54472,0.33442 -1.408,0.73433 -2.04661,0.58301c-0.19012,0.12568 -0.43135,0.2335 -0.65823,0.26587c-0.65003,0.09302 -1.64675,-0.11235 -2.1566,-0.53057c-0.59935,-0.49175 -0.93842,-1.16221 -0.99013,-1.93579c-0.04995,-0.74531 0.22131,-1.53647 0.7653,-2.05898c0.67874,-0.65186 1.57674,-0.58594 2.47034,-0.58447z" fill="#ffffff"/><path d="M148.62617,112.21392c1.40463,-0.02578 2.81073,-0.01201 4.21537,0.04116c0.12743,3.25225 -0.01611,6.54404 0.04101,9.80273c0.32223,-0.36826 0.65179,-0.7311 0.98573,-1.08838c1.31089,-1.37461 2.97624,-1.94971 4.84958,-1.97666c2.00809,-0.02915 3.85506,0.41528 5.31535,1.86357c0.92715,0.91875 1.5262,2.07729 1.81914,3.34365c0.5888,2.54502 0.21384,9.74253 0.24753,12.75981l-4.10845,0.00278l0.00293,-8.27607c0.02783,-1.79004 -0.05712,-3.6498 -1.32554,-5.05459c-0.77482,-0.85752 -1.80889,-1.2041 -2.9323,-1.23735c-1.29332,-0.03838 -2.56027,0.23774 -3.50939,1.1707c-0.6181,0.6126 -1.04725,1.38823 -1.24059,2.23608c-0.45845,1.96025 -0.14061,8.7189 -0.13182,11.15889l-4.30032,0.0019l-0.00146,-16.55713c0,-2.68345 -0.21238,-5.53228 0.07323,-8.19111z" fill="#5b45b5"/><path d="M32.16247,112.23545c1.48461,-0.05903 2.97126,-0.04468 4.45441,0.04292l0.02241,20.56289c2.75478,-0.18032 5.54325,0.05508 8.3077,-0.121c0.20271,0.51021 0.44453,1.00386 0.72312,1.47686c-0.22878,0.78325 -0.09857,1.93477 -0.11102,2.76431l-13.39998,0.00015z" fill="#5b45b5"/><path d="M146.50823,142.93198c0.75724,-0.00469 1.63606,-0.11382 2.32299,0.23584c0.83634,1.16001 -0.16697,4.2936 0.2446,5.82876c0.76457,-0.12891 1.39292,-1.06055 2.29077,-1.29639c1.29771,-0.34277 2.74629,-0.17139 3.89167,0.5332c1.19665,0.73535 1.97147,1.95264 2.28638,3.30762c0.48042,2.06982 0.01611,3.81738 -1.09119,5.5752c-0.67522,0.63428 -1.51009,1.2085 -2.39183,1.50586c-2.42845,0.82178 -2.79316,-0.57129 -4.56396,-1.40918c-0.21677,-0.10254 -0.20799,-0.09814 -0.42769,-0.01611c-0.05419,0.38086 -0.12303,0.75439 -0.20359,1.13086c-0.48188,0.29883 -1.6009,0.08203 -2.22193,0.11133l-0.13768,0.00732z" fill="#5b45b5"/><path d="M151.67125,149.55469v0.22119c0.19041,0.01318 0.35885,0.03076 0.54633,-0.01172c0.33688,-0.07764 0.55658,-0.07031 0.89199,0.03369c0.80558,0.25049 1.33872,0.74561 1.73419,1.4751c0.50825,0.93604 0.53754,2.07275 0.22263,3.07471c-0.3735,1.18799 -1.00478,1.76221 -2.09597,2.31738c-0.05859,0.01025 -0.11717,0.02197 -0.17576,0.02783c-0.99745,0.10986 -1.91435,0.05127 -2.72725,-0.58301c-0.78361,-0.61084 -1.20104,-1.59961 -1.30064,-2.56934c-0.10546,-1.03125 0.11864,-2.14893 0.8129,-2.94873c0.55072,-0.63428 1.26549,-0.97852 2.09157,-1.03711z" fill="#ffffff"/><path d="M111.893,112.20483l4.06612,0.00864c0.13812,2.77954 0.02124,5.61167 0.02138,8.39941l0.00688,16.34341l-4.09497,0.0063z" fill="#5b45b5"/><path d="M120.50257,112.21201l4.03214,-0.01245l0.00586,17.25498c0.00278,2.09092 0.26115,5.56377 -0.06093,7.50527l-4.04136,0.0022l-0.00205,-16.40259c-0.00059,-2.7479 -0.18104,-5.61782 0.06635,-8.34741z" fill="#5b45b5"/><path d="M138.56201,147.56836c1.4868,-0.01025 2.51457,0.18896 3.90061,0.72803c0.39693,0.56982 0.79738,1.17041 1.10071,1.79443c0.58119,1.19678 0.86929,6.76611 0.43223,8.06836c-0.30583,0.24316 -0.59408,0.3999 -0.99862,0.37939c-0.66175,-0.03369 -1.11492,-0.49219 -1.52122,-0.95947c-0.11102,-0.12744 -0.16507,-0.18896 -0.34669,-0.14502c-0.25193,0.06006 -0.6493,0.36035 -0.89024,0.48926c-1.07845,0.57568 -2.34159,1.08252 -3.5876,0.82324c-1.09632,-0.22705 -1.7982,-0.9126 -2.41102,-1.7959c-0.21414,-0.72217 -0.42549,-1.30811 -0.24197,-2.06689c0.9188,-3.79687 5.93286,-1.6333 7.43607,-2.74805c0.19129,-0.14209 0.1494,-0.19482 0.18558,-0.41309c-0.13475,-0.21973 -0.23054,-0.40137 -0.24504,-0.66357c-0.01582,-0.28857 0.04101,-0.61377 -0.15672,-0.854c-2.13361,-2.58252 -4.49,0.83643 -5.86036,0.5083c-0.34508,-0.08203 -0.43779,-0.26221 -0.58661,-0.55518c0.01597,-0.43799 0.15247,-0.70166 0.42491,-1.04443c0.87207,-1.10156 2.03723,-1.38574 3.366,-1.54541z" fill="#5b45b5"/><path d="M138.05333,153.58594c0.83033,-0.05273 2.60582,-0.34424 3.31517,0.12305c0.25954,0.17139 0.2364,0.26074 0.28093,0.54639l-0.27492,0.20654c0.01655,0.32959 0.0643,0.75146 -0.07001,1.06055c-0.17049,0.39111 -0.52538,0.77344 -0.93418,0.90088c-0.27536,0.08643 -0.42769,0.17432 -0.65135,0.35742c-0.02592,0.02051 -0.05112,0.04395 -0.0766,0.06445l-0.25998,-0.14062c-0.18777,0.13623 -0.37584,0.27393 -0.60096,0.33984c-0.42827,0.12598 -1.1615,-0.0542 -1.53748,-0.25928c-0.4353,-0.2373 -0.77072,-0.58887 -0.9084,-1.07227c-0.116,-0.40723 0.01787,-0.93896 0.24621,-1.28613c0.20667,-0.31494 0.77643,-0.62695 1.14363,-0.6665c0.23376,-0.0249 0.17884,-0.01611 0.32794,-0.17432z" fill="#ffffff"/><path d="M170.53642,119.26099l4.09966,0.00396l0.00439,17.69575l-4.08355,0.0019c-0.0747,-5.90024 -0.08202,-11.80122 -0.02051,-17.70161z" fill="#5b45b5"/><path d="M123.7823,142.97402c0.68562,0.08027 1.41562,-0.12217 2.07531,0.02314c0.24753,0.05449 0.48964,0.11235 0.62542,0.35127c0.62029,1.09058 -0.51132,11.3874 0.36251,12.67207c1.51976,0.46143 3.89094,0.14355 5.52363,0.12451l-0.00146,2.3877c-2.1172,0.56836 -6.45107,0.33984 -8.58599,-0.20801z" fill="#5b45b5"/><path d="M172.05677,112.04897c0.89053,-0.07749 1.59944,0.23247 2.39623,0.57656c0.1948,0.31992 0.40572,0.64878 0.54633,0.99639c0.24167,0.59341 0.25925,1.35688 0.00146,1.94824c-0.33981,0.78252 -0.94033,1.15649 -1.68732,1.46938l-1.75909,-0.01992c-0.55951,-0.35347 -1.1117,-0.80391 -1.3812,-1.4228c-0.27097,-0.62139 -0.33834,-1.27163 -0.08349,-1.90898c0.38521,-0.96299 1.07362,-1.2731 1.96707,-1.63887z" fill="#5b45b5"/></g></svg></svg>